<svg width="52" height="57" viewBox="0 0 52 57" fill="none" xmlns="http://www.w3.org/2000/svg">
<path d="M1 21C1 11.5719 1 6.85786 3.92893 3.92893C6.85786 1 11.5719 1 21 1H31C40.4281 1 45.1421 1 48.0711 3.92893C51 6.85786 51 11.5719 51 21V36C51 45.4281 51 50.1421 48.0711 53.0711C45.1421 56 40.4281 56 31 56H21C11.5719 56 6.85786 56 3.92893 53.0711C1 50.1421 1 45.4281 1 36V21Z" fill="white" fill-opacity="0.2" stroke="url(#paint0_linear_207_363)" stroke-opacity="0.2"/>
<path d="M6 26C6 16.5719 6 11.8579 8.92893 8.92893C11.8579 6 16.5719 6 26 6C35.4281 6 40.1421 6 43.0711 8.92893C46 11.8579 46 16.5719 46 26V31C46 40.4281 46 45.1421 43.0711 48.0711C40.1421 51 35.4281 51 26 51C16.5719 51 11.8579 51 8.92893 48.0711C6 45.1421 6 40.4281 6 31V26Z" fill="url(#paint1_linear_207_363)"/>
<path fill-rule="evenodd" clip-rule="evenodd" d="M29.3558 19.0079C29.1328 18.976 28.9087 19.0419 28.7304 19.1838C28.5472 19.3277 28.4326 19.5356 28.4077 19.7684C28.355 20.2391 28.6946 20.6648 29.1646 20.7178C32.4063 21.0795 34.9259 23.6048 35.2904 26.8565C35.3392 27.2922 35.7047 27.621 36.1409 27.621C36.1738 27.621 36.2057 27.619 36.2385 27.615C36.4666 27.59 36.6698 27.4771 36.8132 27.2972C36.9556 27.1174 37.0203 26.8935 36.9944 26.6647C36.5403 22.6075 33.4002 19.4586 29.3558 19.0079ZM29.4181 22.4899C28.9421 22.402 28.5048 22.7058 28.4142 23.1705C28.3236 23.6352 28.6283 24.0888 29.0914 24.1798C30.4857 24.4516 31.5623 25.5309 31.8351 26.9299V26.9309C31.9128 27.3336 32.2674 27.6264 32.6757 27.6264C32.7305 27.6264 32.7852 27.6214 32.841 27.6114C33.3041 27.5185 33.6088 27.0658 33.5182 26.6001C33.1109 24.5106 31.5025 22.8967 29.4181 22.4899ZM31.0001 32.0905C31.4515 31.8302 31.9615 31.5362 32.6047 31.673C33.1873 31.7959 35.1731 33.4078 35.7169 33.9665C36.0734 34.3322 36.2716 34.7099 36.3025 35.0877C36.3562 36.5697 34.3425 38.2615 33.976 38.4724C33.489 38.8231 32.9224 39 32.286 39C31.6357 39 30.9106 38.8151 30.1199 38.4464C25.8296 36.6556 19.2755 30.231 17.5427 25.9739C16.8236 24.389 16.8186 23.0819 17.5307 22.0996C17.8145 21.6389 19.4329 19.7132 20.8819 19.7742C21.2673 19.8072 21.6418 20.005 22.0093 20.3648C22.565 20.9094 24.1365 22.9011 24.258 23.4857C24.3925 24.1352 24.0977 24.6519 23.8358 25.1055C23.7799 25.2031 23.7046 25.3188 23.6222 25.4456C23.3092 25.9268 22.8926 26.5674 23.04 26.9763C24.0967 29.5705 26.5376 31.8339 29.133 32.8972C29.5343 33.0431 30.1745 32.6235 30.6542 32.3092C30.7791 32.2273 30.8932 32.1525 30.9893 32.0967L31.0001 32.0905Z" fill="#25B4F8"/>
<defs>
<linearGradient id="paint0_linear_207_363" x1="26" y1="1" x2="26" y2="56" gradientUnits="userSpaceOnUse">
<stop stop-color="#1376F8"/>
<stop offset="1" stop-color="#25B4F8"/>
</linearGradient>
<linearGradient id="paint1_linear_207_363" x1="26" y1="6" x2="26" y2="51" gradientUnits="userSpaceOnUse">
<stop stop-color="#E6F6FE"/>
<stop offset="1" stop-color="#E6F6FE" stop-opacity="0"/>
</linearGradient>
</defs>
</svg>
