<svg width="57" height="57" viewBox="0 0 57 57" fill="none" xmlns="http://www.w3.org/2000/svg">
<path d="M1 21C1 11.5719 1 6.85786 3.92893 3.92893C6.85786 1 11.5719 1 21 1H36C45.4281 1 50.1421 1 53.0711 3.92893C56 6.85786 56 11.5719 56 21V36C56 45.4281 56 50.1421 53.0711 53.0711C50.1421 56 45.4281 56 36 56H21C11.5719 56 6.85786 56 3.92893 53.0711C1 50.1421 1 45.4281 1 36V21Z" fill="white"/>
<path d="M55.5 21C55.5 16.2718 55.4993 12.7758 55.1387 10.0938C54.78 7.42612 54.0738 5.63829 52.7178 4.28223C51.3617 2.92616 49.5739 2.22 46.9062 1.86133C44.2242 1.50073 40.7282 1.5 36 1.5H21C16.2718 1.5 12.7758 1.50073 10.0938 1.86133C7.42612 2.22 5.63829 2.92616 4.28223 4.28223C2.92616 5.63829 2.22 7.42612 1.86133 10.0938C1.50073 12.7758 1.5 16.2718 1.5 21V36C1.5 40.7282 1.50073 44.2242 1.86133 46.9062C2.22 49.5739 2.92616 51.3617 4.28223 52.7178C5.63829 54.0738 7.42612 54.78 10.0938 55.1387C12.7758 55.4993 16.2718 55.5 21 55.5H36C40.7282 55.5 44.2242 55.4993 46.9062 55.1387C49.5739 54.78 51.3617 54.0738 52.7178 52.7178C54.0738 51.3617 54.78 49.5739 55.1387 46.9062C55.4993 44.2242 55.5 40.7282 55.5 36V21ZM56.5 36C56.5 40.6997 56.5015 44.2749 56.1299 47.0391C55.7563 49.8176 54.9977 51.852 53.4248 53.4248C51.852 54.9977 49.8176 55.7563 47.0391 56.1299C44.2749 56.5015 40.6997 56.5 36 56.5H21C16.3003 56.5 12.7251 56.5015 9.96094 56.1299C7.18235 55.7563 5.14805 54.9977 3.5752 53.4248C2.00234 51.852 1.24369 49.8176 0.870117 47.0391C0.498525 44.2749 0.5 40.6997 0.5 36V21C0.5 16.3003 0.498525 12.7251 0.870117 9.96094C1.24369 7.18235 2.00234 5.14805 3.5752 3.5752C5.14805 2.00234 7.18235 1.24369 9.96094 0.870117C12.7251 0.498525 16.3003 0.5 21 0.5H36C40.6997 0.5 44.2749 0.498525 47.0391 0.870117C49.8176 1.24369 51.852 2.00234 53.4248 3.5752C54.9977 5.14805 55.7563 7.18235 56.1299 9.96094C56.5015 12.7251 56.5 16.3003 56.5 21V36Z" fill="white"/>
<path d="M6 26C6 16.5719 6 11.8579 8.92893 8.92893C11.8579 6 16.5719 6 26 6H31C40.4281 6 45.1421 6 48.0711 8.92893C51 11.8579 51 16.5719 51 26V31C51 40.4281 51 45.1421 48.0711 48.0711C45.1421 51 40.4281 51 31 51H26C16.5719 51 11.8579 51 8.92893 48.0711C6 45.1421 6 40.4281 6 31V26Z" fill="url(#paint0_linear_130_372)"/>
<path fill-rule="evenodd" clip-rule="evenodd" d="M31.3558 19.0079C31.1328 18.976 30.9087 19.0419 30.7304 19.1838C30.5472 19.3277 30.4326 19.5356 30.4077 19.7684C30.355 20.2391 30.6946 20.6648 31.1646 20.7178C34.4063 21.0795 36.9259 23.6048 37.2904 26.8565C37.3392 27.2922 37.7047 27.621 38.1409 27.621C38.1738 27.621 38.2057 27.619 38.2385 27.615C38.4666 27.59 38.6698 27.4771 38.8132 27.2972C38.9556 27.1174 39.0203 26.8935 38.9944 26.6647C38.5403 22.6075 35.4002 19.4586 31.3558 19.0079ZM31.4181 22.4899C30.9421 22.402 30.5048 22.7058 30.4142 23.1705C30.3236 23.6352 30.6283 24.0888 31.0914 24.1798C32.4857 24.4516 33.5623 25.5309 33.8351 26.9299V26.9309C33.9128 27.3336 34.2674 27.6264 34.6757 27.6264C34.7305 27.6264 34.7852 27.6214 34.841 27.6114C35.3041 27.5185 35.6088 27.0658 35.5182 26.6001C35.1109 24.5106 33.5025 22.8967 31.4181 22.4899ZM33.0001 32.0905C33.4515 31.8302 33.9615 31.5362 34.6047 31.673C35.1873 31.7959 37.1731 33.4078 37.7169 33.9665C38.0734 34.3322 38.2716 34.7099 38.3025 35.0877C38.3562 36.5697 36.3425 38.2615 35.976 38.4724C35.489 38.8231 34.9224 39 34.286 39C33.6357 39 32.9106 38.8151 32.1199 38.4464C27.8296 36.6556 21.2755 30.231 19.5427 25.9739C18.8236 24.389 18.8186 23.0819 19.5307 22.0996C19.8145 21.6389 21.4329 19.7132 22.8819 19.7742C23.2673 19.8072 23.6418 20.005 24.0093 20.3648C24.565 20.9094 26.1365 22.9011 26.258 23.4857C26.3925 24.1352 26.0977 24.6519 25.8358 25.1055C25.7799 25.2031 25.7046 25.3188 25.6222 25.4456C25.3092 25.9268 24.8926 26.5674 25.04 26.9763C26.0967 29.5705 28.5376 31.8339 31.133 32.8972C31.5343 33.0431 32.1745 32.6235 32.6542 32.3092C32.7791 32.2273 32.8932 32.1525 32.9893 32.0967L33.0001 32.0905Z" fill="#1376F8"/>
<defs>
<linearGradient id="paint0_linear_130_372" x1="28.5" y1="6" x2="28.5" y2="51" gradientUnits="userSpaceOnUse">
<stop stop-color="#E6F6FE"/>
<stop offset="1" stop-color="#E6F6FE" stop-opacity="0"/>
</linearGradient>
</defs>
</svg>
