<svg viewBox="0 0 21 21" xmlns="http://www.w3.org/2000/svg"><path fill-rule="evenodd" clip-rule="evenodd" d="m1.289 2.418.072-.076C3.29.415 4.544-.096 5.883.674c.385.221.746.531 1.238 1.03l1.506 1.562c.832.908 1.021 1.779.75 2.799L9.34 6.2l-.042.134-.201.59c-.431 1.326-.251 2.073 1.283 3.606 1.594 1.595 2.339 1.725 3.766 1.227l.254-.089.308-.1.134-.037c1.084-.29 2-.059 2.971.912l1.214 1.172.357.352c.396.404.658.724.851 1.062.766 1.339.254 2.593-1.729 4.569l-.188.191c-.296.285-.573.49-.98.683-.681.323-1.487.446-2.424.315-2.307-.32-5.234-2.141-8.942-5.848a52 52 0 0 1-.868-.888l-.537-.573C-.463 8.013-.906 4.656 1.155 2.55zm4.617.194c-.325-.322-.562-.517-.77-.637-.462-.266-.96-.154-1.883.64l-.29.259-.155.145-.332.324-.03.037-.225.227c-.544.556-.802 1.234-.58 2.401.364 1.915 2.033 4.513 5.391 7.87 3.5 3.498 6.165 5.157 8.089 5.424 1.121.156 1.693-.115 2.277-.713l.444-.449q.313-.326.538-.597l.205-.258c.525-.7.573-1.119.348-1.511a3 3 0 0 0-.39-.513l-.245-.26-.145-.144-1.532-1.48c-.511-.471-.861-.538-1.392-.396l-.153.044-.635.215c-1.84.594-3.167.306-5.122-1.648C7.294 9.568 7.057 8.216 7.735 6.27l.044-.125.12-.363.06-.23c.104-.504-.016-.855-.556-1.395l-.075-.075z"/></svg>